<svg xmlnsXlink="http://www.w3.org/2000/svg" xmlnsXlink:xlink="http://www.w3.org/1999/xlink" width="832.933" height="898.45" overflow="visible" viewBox="15.865 79.275 832.933 898.45">
  <defs>
    <path id="reuse-0" fill="#412a6e" d="M156.611 39.001c.258 1.537.389 3.094.389 4.667C157 72.018 114.243 95 61.5 95S-34 72.018-34 43.668c0-1.573.132-3.13.389-4.667 4.387 26.164 45.294 46.666 95.111 46.666 49.579 0 90.333-20.307 95.045-46.291z" class="D"/>
    <path id="reuse-1" d="M198.278-1c.477 2.312.722 4.658.722 7.032C199 43.57 137.887 74 62.5 74S-74 43.57-74 6.032a34.71 34.71 0 0 1 .721-7.031C-66.212 33.235-8.118 59.938 62.5 59.938c70.11 0 127.874-26.319 135.618-60.197z" class="D K"/>
    <path id="reuse-2" fill="#9e6eff" d="M163.584-16.999c.275 1.537.416 3.094.416 4.667C164 16.018 118.333 39 62 39S-40 16.018-40-12.332c0-1.573.141-3.13.416-4.667C-34.899 9.165 8.793 29.667 62 29.667c52.953 0 96.482-20.307 101.514-46.291z" class="D"/>
    <path id="reuse-3" fill="#8a6cc6" d="M137.756 71c.161.96.244 1.931.244 2.911C138 93.842 103.974 110 62 110s-76-16.158-76-36.089c0-.98.082-1.951.244-2.911 3.122 18.572 35.847 33.179 75.756 33.179 39.875 0 72.577-14.582 75.748-33.129z" class="D"/>
  </defs>
  <style>
    .B{mask:url(#F)}.C{fill:#0a1b45}.D{mask:url(#H)}.E{fill:#fff}.F{fill-opacity:.4}.G{fill:#051026}.H{fill:#d7dbe2}.I{fill:#c0c6ce}.J{fill-rule:nonzero}.K{fill:#48258e}.L{opacity:.352}.M{fill:#b18058}
  </style>
  <g fill="none" fill-rule="evenodd">
    <path fill="#ffb748" d="M171.5 696.5c38.108 0 69 30.892 69 69s-30.892 69-69 69-69-30.892-69-69 30.892-69 69-69zm0 32.711c-20.042 0-36.289 16.247-36.289 36.289s16.247 36.289 36.289 36.289 36.289-16.247 36.289-36.289-16.247-36.289-36.289-36.289z"/>
    <path d="M668.303 203.455c65.867 41.617 111.251 117.499 124.071 194.852 12.967 77.499-6.631 156.617-33.596 231.469-26.818 74.999-61.004 145.587-117.145 194.41-55.994 48.676-133.944 75.441-209.978 72.941-76.181-2.647-150.3-34.559-218.966-79.117-68.666-44.706-131.881-102.058-162.235-174.999-30.355-72.794-27.997-161.175 5.157-232.204s97.105-124.705 164.593-165.881c67.488-41.029 138.512-69.558 217.198-79.999 78.686-10.588 165.035-3.088 230.902 38.529z" class="K"/>
    <g fill="#e7c92d" transform="matrix(1.86018 0 0 1.86306 107 236)">
      <path d="M86.29801045 11.70202755 80.9996577 10.000021l5.29835275-1.70200655L88.000017 2.9996617l1.70200655 5.29835275L95.0003763 10.000021l-5.29835275 1.70200655L88.000017 17.0003803z"/>
      <use xlinkHref="#B" transform="rotate(45 318.99986685 225.00008485)"/>
    </g>
    <g fill="#2773b1" transform="matrix(1.86018 0 0 1.86306 107 236)">
      <use xlinkHref="#B" x="-36" y="-20" transform="rotate(45 282.99987934 205.00007402)"/>
      <use xlinkHref="#B" x="-273.101" y="78.556" transform="rotate(45 45.89937465 303.55631957)"/>
      <use xlinkHref="#B" x="-226.101" y="-189.444" transform="rotate(45 92.89946709 35.55637886)"/>
    </g>
    <g fill="#1c6ae6" transform="matrix(1.86018 0 0 1.86306 107 236)">
      <circle cx="36" cy="248" r="17" class="F"/>
      <circle cx="36" cy="248" r="6"/>
      <circle cx="124" cy="53" r="17" class="F"/>
      <circle cx="124" cy="53" r="6"/>
      <circle cx="212" cy="284" r="7" class="F"/>
      <circle cx="212" cy="284" r="4"/>
      <circle cx="271" cy="38" r="7" class="F"/>
      <circle cx="271" cy="38" r="4"/>
      <circle cx="17" cy="224" r="7" class="F"/>
      <circle cx="17" cy="224" r="4"/>
    </g>
    <g fill="#e7c92d" transform="matrix(1.86018 0 0 1.86306 107 236)">
      <circle cx="259" cy="55" r="5" class="L"/>
      <circle cx="259" cy="55" r="2.857"/>
      <circle cx="5" cy="241" r="5" class="L"/>
      <circle cx="5" cy="241" r="2.857"/>
      <circle cx="217" cy="267" r="5" class="L"/>
      <circle cx="217" cy="267" r="2.857"/>
    </g>
    <g fill="#439de6" transform="matrix(1.86018 0 0 1.86306 107 236)">
      <use xlinkHref="#C" transform="rotate(45 308.99988313 185.0000866)"/>
      <use xlinkHref="#C" x="-237.101" y="98.557" transform="rotate(45 71.89937844 283.55633214)"/>
      <use xlinkHref="#C" x="-190.101" y="-169.443" transform="rotate(45 118.89947088 15.55639143)"/>
    </g>
    <g transform="matrix(.91998 -.33239 .33485 .91322 78.278324 219.564555)">
      <circle cx="104.5" cy="55.5" r="55.5" fill="#e09a33"/>
      <g fill-opacity=".3" class="E">
        <circle cx="69.5" cy="43.5" r="12.5"/>
        <ellipse cx="82.5" cy="27" rx="4.5" ry="4"/>
      </g>
      <circle cx="132.5" cy="87.5" r="10.5" fill="#000" fill-opacity=".2"/>
      <path fill="#ffc267" d="M209 60c0 15.464-46.786 28-104.5 28S0 75.464 0 60c0-10.407 21.19-19.488 52.641-24.314-.777 2.034-1.438 4.125-1.976 6.267C39.064 44.612 32 48.135 32 52c0 8.284 32.459 15 72.5 15S177 60.284 177 52c0-3.865-7.064-7.388-18.665-10.047-.537-2.142-1.199-4.234-1.976-6.268C187.81 40.512 209 49.593 209 60z"/>
    </g>
    <g opacity=".744" transform="matrix(.58741 0 0 .59155 578 399)">
      <defs>
        <path id="B" d="m319 227.407-4.95 2.543 2.543-4.95-2.543-4.95 4.95 2.543 4.95-2.543-2.543 4.95 2.543 4.95z"/>
        <path id="C" d="m309 188.782-7.778 3.996 3.996-7.778-3.996-7.778 7.778 3.996 7.778-3.996-3.996 7.778 3.996 7.778z"/>
        <ellipse id="G" cx="61.5" cy="59.5" rx="61.5" ry="59.5"/>
      </defs>
      <g transform="rotate(10 -2.08047962 122.65039993)">
        <mask id="H" class="E">
          <use xlinkHref="#G"/>
        </mask>
        <use xlinkHref="#G" fill="#613cab"/>
        <use xlinkHref="#reuse-0" class="D"/>
        <use xlinkHref="#reuse-1" class="D K"/>
        <use xlinkHref="#reuse-2" class="D"/>
        <use xlinkHref="#reuse-3" class="D"/>
      </g>
    </g>
    <path d="m235.6216618 651.38378051-3.87268841-65.93345967c-.20063658-3.57170447 2.53434577-6.63494748 6.06139011-6.843488 66.61978476-4.20737895 133.79107928-9.3585279 198.9030644-23.10095456 4.6651228-1.48002545 32.0013792-6.11518415 30.89236256-10.46341514-.0067248-1.88813008-.78467148-3.6521605-1.46753594-5.3466541-10.41655773-25.20477714-24.73873433-49.50791764-39.61613138-73.00636808l66.592316-42.50374644c24.33777385 40.82072648 94.09469765 144.72585734 36.6302064 180.27093297-46.63814495 29.02198371-105.02384455 33.57382478-157.90442868 41.70537052-16.78535638.02193294-139.71489756 20.30541463-136.21855507 5.2217825" class="M"/>
    <path d="M261.24984544 663.52262886c57.16276058-3.84882128 114.50622454-8.99841618 171.25441998-19.24891247l-16.69509254-90.67929665c-62.89963088 11.31919908-128.39387292 16.1114894-192.49141728 19.8758478l2.17422477 31.09307232c2.34333918.22408384 5.15173775.61914346 7.43312307.91773042l-6.1395678 17.5810964 5.46098796 78.09629287 10.88682712-.65501715c8.2340464-.48756186 9.53414378-26.7371912 18.11649472-36.98081354" class="G"/>
    <path d="m426.50392947 645.35290462-16.0011714-90.80500803c16.90587036-3.00059504 33.59102262-6.43384755 49.8443467-11.29746157.14286827-.1072271.50532597-.17066524.67808601-.2088092l-.02245568.00858734c-16.72149603-40.07920142-41.67283168-77.86172772-66.9739715-113.46454367l74.34460987-54.53983345c34.0571296 49.80462628 104.34622795 146.54017085 88.02593351 208.07549934-18.98249078 44.26496496-87.79518266 53.28102552-129.89537751 62.23156924" class="I"/>
    <path d="M478.51158176 584.79855788a.99999992.99999992 0 0 1 1.25715195.43135681l.05142646.10466765 17.84874059 42.62376747a.99999992.99999992 0 0 1-1.7931764.8772216l-.05142646-.10466765-17.8487406-42.62376747a.99999992.99999992 0 0 1 .53602446-1.3085784zm10.86557006-4.06985231a.99999992.99999992 0 0 1 1.32482006.10885098l.07538898.08895785 28.49501653 37.8835794a.99999992.99999992 0 0 1-1.52262888 1.29135806l-.07538898-.08895785-28.49501654-37.88357941a.99999992.99999992 0 0 1 .19780883-1.40020903zm-24.2663609 8.06737534a.99999992.99999992 0 0 1 1.19108194.59035287l.03681179.11070181 12.13401891 44.47591519a.99999992.99999992 0 0 1-1.89213662.63754084l-.03681179-.1107018-12.13401891-44.47591519a.99999992.99999992 0 0 1 .70105468-1.22789372z" class="C J"/>
    <path d="M461.98711806 378.49070688a.99999992.99999992 0 0 1 1.39416071.24033432l3.10491823 4.40614593c18.07003233 25.70411758 30.8486546 44.99271568 42.49905873 64.67597511l.49121683.8317607c15.40499393 26.1120136 27.35097936 50.76776662 36.20539543 75.62366271l.55066257 1.76789427c5.67602751 18.40990644 7.91072907 32.01817004 6.42016274 44.31910905-1.88522998 15.55940626-9.98646987 27.86649447-25.664237 37.1477205a.99999992.99999992 0 1 1-1.01854107-1.72114306c15.14443908-8.96625598 22.88691675-20.72698753 24.6971946-35.66665585 1.4957566-12.34139961-.89063655-26.18365177-6.88150823-45.21110016-8.62092581-24.1975799-20.21413866-48.25247734-35.11643275-73.68389946l-.91697155-1.55883278c-12.40390159-21.02596907-26.04076608-41.50660322-46.00740869-69.77667106a.99999992.99999992 0 0 1 .24033433-1.3941607z" class="G J"/>
    <path d="m465.62447337 630.17504075.14524466.54319143 1.36536215 6.35122832a.99999992.99999992 0 1 1-1.99043336.19231314l-.03923855-.34610593c-.14882107-1.1534284-.52986315-2.8610078-1.166237-5.29554703l-.94374519-3.47563417-1.64392116-5.93378032-.52180245-1.91426397-.9065285-3.44515602-.28139952-1.11408442c-2.70177407-10.81187094-3.41267023-17.53766457-1.42501593-20.78021372l.04863675-.07858412.0789198-.17593368c1.83408142-4.07686878 4.72594767-5.61333642 11.30121723-7.24397296l1.96008898-.48290426c1.77707427-.448053 2.78125934-.75284336 3.82908652-1.17897359l.17537616-.07240992.2052821-.06046695c1.86775451-.341118 3.41824959-.87557621 6.05554032-2.0243413l3.08811362-1.36774609.65239376-.27517867c4.70488062-1.95796298 8.21054448-2.40058226 12.23636443-.92381023l.29757355.11251653.11416862.02710206c3.34444445.83574062 8.34118514 4.67153127 15.31196164 11.27736843l.8377413.79850754 1.0855966 1.04582055 1.12100646 1.09346657 1.16275046 1.14568185 4.05736267 4.06387349 4.52454148 4.58054347c3.020814 3.04569888 4.81173447 4.77398122 6.04485202 5.79344711a1.00015515 1.00015515 0 0 1-1.27456431 1.54166376l-.4218914-.35643876c-.92821963-.80220514-2.11031455-1.92347815-3.75397265-3.55279185l-2.71998345-2.72891198-4.63559153-4.69206873-3.22794384-3.2266912-1.15520947-1.13818963-2.1914513-2.12330512-1.18657348-1.12797693c-6.48945033-6.11621992-11.22298151-9.72882738-14.03574586-10.44436308l-.16616048-.03950554-.15154581-.0455397c-3.50237841-1.37403497-6.49867728-1.08732673-10.69509238.60151218l-1.1511485.48247475-2.61729067 1.16240318c-2.7298481 1.2013496-4.39644452 1.81008751-6.29655378 2.2045925l-.44300234.08711428-.51399722.20435216c-1.1188635.42809021-2.26200996.75262206-4.25060976 1.24353463l-1.7748489.43687052c-5.7188918 1.44845528-8.09994181 2.76375168-9.57393457 6.0265191l-.09686914.2202938-.08701885.16046094c-1.71085228 2.5706038-.92290034 9.50954151 1.87521836 20.45200995l.2844132 1.0998395.6164509 2.321654 2.86227175 10.39766633z" class="C J"/>
    <path d="m393.23978117 480.3904578-9.97564.69756c-54.54380683 3.8140488-101.85070095-37.31018274-105.66468-91.852992l207.493312-14.509248c3.81397905 54.54280926-37.31018274 101.85070094-91.852992 105.66468" class="H"/>
    <path d="m365.85041656 909.87819147-53.80871115-38.2998109c-2.91018568-2.08006375-3.81601555-5.80194255-2.00627173-8.42056158 29.29646484-42.94821928 54.72816769-90.2594758 70.25516577-139.71504282 9.13792853-30.21001202 14.9374342-61.61405745 9.70847912-92.22386681-12.04607614-60.50709903-51.83365713-108.75620288-82.90013748-160.97833356l68.54422235-39.27604148c37.43244978 60.0130434 82.27156414 120.57977614 93.15560297 192.66714186 10.52361516 80.4659162-21.39662371 159.1331651-58.87312413 228.11340071-6.43122054 8.55044376-34.79402197 68.53503217-44.07522572 58.13311458" class="M"/>
    <path d="M391.53114779 896.34784841c33.58384067-52.43940847 61.68944345-108.23184434 77.14142239-169.08193348l-89.4884518-22.21274909c-15.01630557 58.135085-45.33907512 114.23192306-80.31924193 163.44687944l24.85551439 18.8079916c1.29560858-.93966536 3.41942244-2.99482016 4.66888556-4.09265186l10.118616 15.28138864 62.42822164 47.23832095 4.42029712-6.04205975c13.80245447-11.84365335-9.42732036-25.99570896-13.82526337-43.34518645" class="C"/>
    <path d="m466.86539819 734.2650247-89.05611681-23.88598276c19.55399062-65.06449471 1.20184506-113.85516822-32.92532981-169.42094161-28.7099481-46.76321596-67.75927571-93.24250645-71.14924003-151.89991577l92.01971684-5.81208572c5.420448 41.2042579 37.34606592 73.28539846 57.66739352 109.40885444 47.9243461 76.33192065 69.53586115 153.08334128 43.44357629 241.61007143" class="H"/>
    <g class="C">
      <path d="M443.9208275 590.7980848c-5.29599217 8.3277122-10.79213858 16.5741885-17.02285237 24.20741152-8.74260032-3.6169614-17.91785705-7.29990311-26.88743731-10.16319547-10.59940154-33.62553425-28.01708656-64.00654912-47.37756841-93.55701916-24.38946953-37.93308659-53.35592159-75.96413975-56.49547536-123.64327547l46.01138964-2.9056487c3.32314642 38.53505556 29.29480578 69.50581582 49.13879031 101.42633168 21.45165695 32.64814343 40.8649423 67.1971056 52.6331535 104.6353956"/>
      <g class="J">
        <path d="m432.06636276 651.81663604 46.1001638-.4749204a.99999992.99999992 0 0 1 .1373076 1.99227483l-.116715.00816145-46.10016379.47492039a.99999992.99999992 0 0 1-.1373076-1.99227482l.11671499-.00816145zm44.79249278-21.82771434a.99999992.99999992 0 0 1 .32422183 1.97018262l-.1149501.0190649-45.84887755 4.81396084a.99999992.99999992 0 0 1-.32422184-1.97018262l.11495011-.0190649 45.84887755-4.81396084zm-45.2570239 39.0821471 45.98191398 3.32458322a.99999992.99999992 0 0 1-.02777874 1.9968016l-.11641499-.00188394-45.98191397-3.3245832a.99999992.99999992 0 0 1 .02777874-1.99680162l.11641499.00188395zm-73.12598208-286.367567a.99999992.99999992 0 0 1 1.08587616.9064616c.5470749 6.07463504 1.87636479 12.29706588 3.9555637 18.73571274l.33149434 1.01334461c5.15270097 15.5133561 13.18800322 29.730476 28.99751472 53.42738928l10.57860258 15.79555423c6.0732389 9.10954441 7.44964527 11.361016 10.85852936 17.1322837 27.88968893 43.99268541 46.5899595 86.29326632 54.56363161 128.01367875a1.00010491 1.00010491 0 1 1-1.96456017.37595565c-7.92115107-41.4423989-26.52278922-83.52232252-54.3054325-127.3460635l-2.01322454-3.38781764c-2.91097068-4.84374085-5.23717854-8.37808294-14.25754643-21.83062621l-3.54867734-5.29034483c-17.31082318-25.79930885-25.76534406-40.63569416-31.14319023-57.2901245-2.12281217-6.57493654-3.48423284-12.9414771-4.0441848-19.1715926a.99999992.99999992 0 0 1 .9064616-1.08587617z"/>
        <path d="M474.64694694 615.7174527a1.00022302 1.00022302 0 1 1 .62605837 1.89995664l-.3050107.09651141c-1.48053972.44536137-3.75244034.85583996-7.67502355 1.4288595l-6.45179921.9162837-5.9875344.90386819-1.10894974.18280118c-10.76408223 1.80826408-17.24376871 3.88832785-18.92623606 6.53513725l-.0817798.13503355-.07983345.11986083c-2.7579211 3.53799955-3.0422952 6.94012337-2.08594748 14.99703767l.18219276 1.51598364c.4389909 3.74048896.56183015 5.78389759.36883182 7.9696846l-.0379856.38859628.01605123.12919502c.27743281 2.290226.20831443 4.29793788-.17127725 8.38838032l-.15012874 1.58032179c-.73758412 7.74431479-.3516524 11.47147247 2.39913434 14.8989373l.17103606.2095797.07650507.10491888c1.74087805 2.74725515 8.37674919 4.52068302 19.58001327 5.75319018l1.11704771.11936997 16.04773955 1.500228c1.89661198.22925835 3.29070294.46859511 4.27876436.75035822a.99999992.99999992 0 1 1-.54919737 1.9229939l-.36870059-.09751845c-.8515908-.20810333-2.04105578-.40260477-3.60201212-.59117801l-.56076314-.06303695-15.08014496-1.3964708-.37456063-.03796462c-12.47093714-1.29823946-19.65991188-3.11118128-22.06893853-6.62569797l-.07172653-.10826035-.15226381-.1848289c-3.12657358-3.88436436-3.60236157-7.9360445-2.87874963-15.86583645l.2306556-2.45005754c.34576416-3.8144104.38971267-5.6659862.11239786-7.79683222a.99999992.99999992 0 0 1-.00256628-.23739925l.04644077-.46838042c.17750409-2.0203031.05943604-3.96680851-.36471046-7.58102537l-.23543864-1.9763909c-.9300203-8.08181145-.59848743-11.81302648 2.37612274-15.75011351l.13392534-.17777513.06027972-.09844467c2.10657422-3.39120663 8.78822231-5.55055156 20.2797731-7.47785089l2.15582026-.35023454 3.21582642-.48751072 8.23414661-1.17424148c4.08527687-.59742786 6.34272331-1.0139128 7.66358303-1.44911078z"/>
      </g>
    </g>
    <g transform="rotate(-4 91.81340746 -818.8603804)">
      <defs>
        <path id="E" d="M0 838h712.461V.099H0z"/>
      </defs>
      <g transform="translate(0 126)">
        <g class="G">
          <path d="M708.94 124.838c4.128 2.766 4.729 9.097 1.256 14.024-15.111 21.377-31.39 41.794-49.594 61.22-4.237 4.442-10.545 5.196-14.101 1.676-3.499-3.483-3.073-9.753.974-13.994 17.526-18.695 33.352-38.533 48.002-59.263 3.348-4.748 9.33-6.429 13.463-3.663"/>
          <path d="M702.723 105.125c4.217 2.633 5.015 8.934 1.733 13.83-6.352 9.514-12.973 18.711-19.836 27.771-3.557 4.653-9.638 5.891-13.542 2.792-3.881-3.083-4.22-9.196-.792-13.681 6.649-8.777 13.082-17.712 19.205-26.883 3.141-4.687 9.005-6.444 13.232-3.829"/>
          <path d="M690.357 94.717c4.276 2.546 5.224 8.682 2.067 13.441-6.118 9.236-12.515 18.24-19.17 27.063-3.41 4.564-9.46 5.682-13.348 2.619-3.922-3.088-4.312-9.054-1.028-13.45 6.442-8.541 12.651-17.281 18.532-26.158 3.016-4.552 8.711-6.104 12.947-3.515m-42.317 17.47c3.983 2.942 4.612 8.903 1.271 13.204-6.459 8.357-13.153 16.516-20.08 24.421-1.794 2.023-5.613 2.998-9.017 3.341-3.392.367-6.298.209-6.298.209 4.302-4.718-3.72-9.147 3.851-17.773 5.933-6.871 11.699-13.961 17.298-21.202 3.212-4.132 8.963-5.166 12.975-2.2"/>
          <path d="M672.164 93.468c4.162 2.708 5.102 8.657 1.954 13.211-10.503 15.224-21.767 29.987-33.77 44.035-1.775 2.11-4.178 3.333-6.597 3.594-2.412.272-4.82-.399-6.677-2.051s-2.817-3.965-2.887-6.348c-.059-2.375.755-4.841 2.466-6.876 11.565-13.533 22.497-27.859 32.637-42.559 3.02-4.367 8.705-5.722 12.874-3.006"/>
          <path d="M676.544 129.128c7.357 5.39 11.486 13.723 11.925 23.005.436 9.249-2.872 19.414-10.026 27.879-15.704 17.862-32.675 34.967-51.783 50.684-9.575 7.836-19.595 15.382-30.526 22.232-10.904 6.854-22.581 13.124-35.294 18.245-12.688 5.116-26.52 9.026-41.213 10.777-14.729 1.7-29.501.92-43.37-1.703-13.902-2.613-26.928-6.994-39.025-12.358-12.108-5.376-23.326-11.74-33.844-18.675-19.605-13.04-36.842-27.978-52.603-43.931-7.106-6.887-11.859-14.754-13.02-22.305-1.178-7.565 1.252-14.753 8.154-20.69 6.912-5.948 15.528-8.548 23.764-8.376 8.256.2 16.153 3.179 22.198 9.037 13.717 13.316 28.432 25.399 43.871 35.196 16.496 10.465 33.953 18.257 50.953 21.145 8.491 1.454 16.818 1.696 24.871.642 8.072-1.119 16.394-3.501 24.716-7.03 8.322-3.513 16.62-8.089 24.731-13.391 8.125-5.276 16.009-11.434 23.695-17.968 7.68-6.56 15.138-13.6 22.364-20.985 7.219-7.4 14.194-15.16 20.957-23.154 6.281-7.434 14.636-12.057 23.361-13.626 4.347-.787 8.792-.789 13.081.076 4.272.854 8.391 2.577 12.063 5.274"/>
        </g>
        <path d="m608.195 159.371 47.431 45.895c-8.864 8.673-18.149 17.082-27.994 25.108-9.319 8.433-19.195 16.572-30.049 24.081-10.834 7.509-22.552 14.474-35.524 20.293a228.13 228.13 0 0 1-6.008 2.492l-5.664 1.959-3.154 1.068c-1.07.362-2.148.735-3.301 1.022l-6.691 1.782-3.116.804c-1.017.229-2.017.4-2.934.582l-6.885 1.29c-8.259 1.388-16.757 1.933-25.053 1.82-8.32-.114-16.504-.948-24.426-2.342-15.867-2.791-30.637-7.758-44.25-13.862-10.834-4.995-20.986-10.697-30.528-16.882-19.332-12.55-36.359-26.873-52.012-42.127-9.738-9.269-18.083-21.731-21.253-33.811-3.209-12.065-1.306-23.706 8.421-31.006 9.826-7.165 21.233-10.167 33.547-7.972 12.366 2.17 25.518 9.606 40.046 22.764 10.248 10.161 21.066 19.482 32.283 27.407 11.516 8.038 23.463 14.583 35.311 18.803 11.866 4.238 23.478 6.075 34.665 5.184.7-.013 1.419-.161 2.133-.251l2.15-.287 2.161-.261c.725-.104 1.465-.314 2.201-.46l4.442-.932 4.521-1.322c.757-.232 1.515-.392 2.277-.675l2.29-.842c1.528-.579 3.069-1.056 4.609-1.699 3.07-1.377 6.185-2.559 9.268-4.204 6.213-2.947 12.365-6.701 18.501-10.577 3.023-2.091 6.115-4.024 9.098-6.288l4.517-3.299 4.454-3.48c8.345-6.08 16.531-12.725 24.516-19.775" class="I"/>
        <g class="G">
          <path d="m534.191 208.335 2.519 6.002c8.98-2.595 18.125-6.396 27.153-11.027 9.047-4.612 17.942-10.155 26.649-16.2l-6.833-7.964c-15.929 12.66-32.908 23.126-49.488 29.189m25.792 61.464 2.076 4.949c12.971-5.821 24.688-12.788 35.52-20.299 10.853-7.51 20.728-15.65 30.046-24.084l-8.136-9.483c-8.21 9.049-17.006 17.859-26.825 26.111-9.804 8.254-20.544 16.045-32.681 22.806m-39.062-5.372 3.386 21.32c-8.26 1.388-16.758 1.932-25.054 1.82-8.319-.114-16.504-.948-24.426-2.343-15.867-2.791-30.636-7.757-44.25-13.861l8.845-19.693c1.462-3.237 4.369-5.421 7.806-6.494 3.455-1.082 7.414-1.012 11.322.321 7.2 2.532 14.638 4.48 22.207 5.83 7.573 1.336 15.305 1.949 23.041 1.83 4.18-.129 8.046 1.044 11.15 2.977 3.099 2.005 5.409 4.795 5.973 8.293"/>
          <path d="M619.489 220.882c12.223-4.573 24.28-9.843 36.137-15.617-8.866 8.671-18.155 17.075-28.001 25.099l-8.136-9.482zm-28.976-33.772c6.35-8.978 12.209-18.256 17.683-27.739-7.986 7.05-16.171 13.695-24.516 19.775l6.833 7.964zm-66.483 30.055 4.678 16.35-6.416 1.672-6.465 1.198c-4.311.683-8.66 1.014-13.035 1.091-8.753.121-17.575-.992-26.269-3.024-17.403-4.174-34.178-12.107-49.818-22.032-9.97-6.309-19.517-13.446-28.661-21.124s-17.893-15.909-26.235-24.543c-3.187-3.296-2.893-8.608.569-11.779s8.647-3.154 11.662-.036c15.928 16.446 33.318 31.418 51.768 43.118 14.47 9.195 29.655 16.265 44.646 19.85 7.488 1.745 14.9 2.666 22.117 2.565 3.612-.068 7.157-.333 10.695-.898l5.353-.991c1.796-.412 3.603-.966 5.411-1.417"/>
        </g>
        <path d="M400.27 274.252H188.458v-97.626c0-23.469 19.025-42.495 42.494-42.495h126.824c23.469 0 42.494 19.026 42.494 42.495v97.626z" class="H"/>
        <mask id="F" class="E">
          <use xlinkHref="#E"/>
        </mask>
        <path d="M210.942 274.361h46.122v-91.438h-46.122zm145.69.919c-.052 0-.105-.004-.159-.013a1 1 0 0 1-.829-1.145l15.997-102.996c1.478-10.365 3.488-24.459-2.15-30.957-2.061-2.376-4.967-3.532-8.883-3.532a1 1 0 1 1 0-2c4.467 0 7.964 1.421 10.394 4.222 6.235 7.187 4.151 21.803 2.629 32.476l-16.013 103.103a1 1 0 0 1-.986.842m-36.31 0a1 1 0 0 1-.956-.707c-.23-.749-23.061-75.183-33.652-102.949-4.654-12.2-20.406-34.987-37.415-34.987a1 1 0 1 1 0-2c17.982 0 34.459 23.625 39.284 36.274 10.615 27.828 33.466 102.327 33.695 103.076a1 1 0 0 1-.663 1.249c-.098.03-.196.044-.293.044m38.019-79.42h-45.337a1.5 1.5 0 0 1-1.371-.893c-.066-.149-6.725-15.118-15.777-29.877-11.753-19.162-22.097-29.29-29.912-29.29a1.5 1.5 0 1 1 0-3c20.04 0 44.484 52.238 48.031 60.06h43.151c.654-3.161 2.437-12.291 3.392-22.323 1.531-16.09.293-27.15-3.582-31.985-1.485-1.852-3.334-2.752-5.656-2.752a1.5 1.5 0 1 1 0-3c3.245 0 5.936 1.304 7.998 3.877 10.42 13.004.936 56.178.527 58.01a1.5 1.5 0 0 1-1.464 1.173" class="C B"/>
        <path d="M292.809 275.752a1.5 1.5 0 0 1-1.454-1.135l-11.354-45.21-24.002-24.158a1.5 1.5 0 1 1 2.129-2.115l24.292 24.451a1.5 1.5 0 0 1 .391.692l11.454 45.609a1.5 1.5 0 0 1-1.09 1.82c-.122.031-.245.046-.366.046m79.544 0c-.121 0-.244-.015-.366-.046a1.5 1.5 0 0 1-1.09-1.82l11.455-45.609c.045-.18.123-.35.23-.501l17.292-24.451a1.5 1.5 0 0 1 2.449 1.732l-17.129 24.222-11.387 45.338a1.5 1.5 0 0 1-1.454 1.135" class="I B"/>
        <path d="M43.081 436.574c5.057 7.467 10.392 11.575 15.315 13.702 4.908 2.131 9.417 2.292 12.933 1.838 3.523-.465 5.376-3.742 5.507-7.366.1-3.62-1.511-7.614-5.171-9.616-3.62-2.014-8.299-2.88-13.249-5.726-2.474-1.426-5.084-3.332-7.609-6.156-1.27-1.41-2.547-3.042-3.801-4.949-1.231-1.914-2.446-4.103-3.638-6.614-4.626-10.087-7.203-7.818-7.469-.9-.235 6.886 2.123 18.319 7.182 25.787" class="B G"/>
        <path d="M67.68 351.901c-.199-3-3.526-4.503-8.627-5.038-5.1-.528-11.973-.059-19.257 1.047s-14.98 2.857-21.732 4.803c-6.745 1.936-12.578 4.075-16.067 5.752 2.125 24.528 7.546 43.963 13.646 59.409 6.175 15.437 13.107 26.918 19.565 35.483 12.999 17.11 23.919 22.658 26.577 24.302 1.354.814 2.825 1.01 4.211.749 1.384-.27 2.674-1.011 3.706-2.011 2.057-2.009 3.071-5.131 1.475-8.296-.753-1.493-3.511-5.234-6.905-10.395-3.387-5.159-7.391-11.749-10.701-18.769-3.334-7.008-5.887-14.465-6.625-21.118-.328-3.335-.252-6.456.474-9.227.731-2.772 2.04-5.178 4.074-7.076 4.94-4.576 9.268-4.381 13.025-2.242 3.756 2.151 6.909 6.281 9.605 9.873 3.169 4.303 8.001 4.462 11.472 2.549 3.467-1.921 5.75-5.875 3.926-10.067-3.008-7.073-8.287-15.758-12.866-24.65-4.601-8.868-8.355-17.937-8.976-25.078" class="B C"/>
        <g class="H B">
          <path d="M69.03 360.808c-4.695 11.966-8.786 24.539-12.357 37.465 0 0-5.028 1.649-7.905 6.827-1.431 2.555-1.898 5.86-1.958 8.514-.078 2.659.191 4.676.191 4.676l-27.444 11.689-.805-1.757-2.11-4.831-2.931-7.253-3.253-9.029c-2.156-6.467-4.238-13.665-5.635-20.626-1.422-6.949-2.141-13.664-1.885-18.967.67-10.76 17.262-11.784 33.621-10.688 8.181.546 16.304 1.589 22.375 2.438l10.096 1.542"/>
          <path d="m69.03 360.808-65.631 6.969C1.655 354.935.503 341.812.156 328.348l.031-3.673.138-3.713.31-7.429.579-7.517c.109-1.256.175-2.496.324-3.764l.454-3.806c1.067-10.093 3.079-20.456 5.722-30.847l2.243-7.832c.348-1.299.822-2.614 1.287-3.926l1.396-3.93 1.417-3.922c.469-1.305 1.097-2.618 1.644-3.923l3.47-7.814c2.751-5.196 5.255-10.223 8.772-15.583 3.429-5.17 7.152-10.075 11.133-14.632.393-.426 4.974-5.951 12.367-12.62 7.366-6.694 17.583-14.207 27.979-20.168 10.387-6.027 20.862-10.713 28.679-13.79l5.334-2.048 4.108-1.491 3.573-1.237c8.805-2.854 17.576-5.216 26.311-7.241 22.618-5.107 44.945-7.931 67.111-9.397 13.097-.32 28.471.224 40.438 5.382 11.952 5.117 20.469 14.803 19.476 31.708-.851 14.646-5.71 23.92-15.489 29.782-9.763 5.903-24.495 8.309-44.722 10.205-16.697.75-33.221 2.445-49.061 5.403-17.23 3.384-33.701 8.33-47.693 15.283-6.969 3.48-13.303 7.432-18.627 11.862-2.67 2.211-5.143 4.513-7.321 6.946-1.063 1.229-2.139 2.451-3.087 3.734-.516.623-.964 1.276-1.411 1.931l-.691.974c-.234.314-.445.749-.672 1.116l-2.739 4.593-2.449 4.978c-.45.802-.761 1.728-1.127 2.609l-1.085 2.668c-.788 1.734-1.353 3.654-1.982 5.535a138.67 138.67 0 0 0-5.612 24.22c-1.218 8.532-2.011 17.351-2.213 26.38s-.015 18.2.559 27.454"/>
        </g>
        <path d="m199.481 211.713-8.727-66.429c14.245-1.537 28.403-2.392 42.533-2.708 9.701-.446 18.599 3.124 24.846 9.114 6.278 5.989 9.858 14.356 9.604 23.462s-4.046 17.249-9.697 23.207c-5.678 5.957-13.262 9.758-21.745 10.149-12.373.567-24.699 1.61-36.814 3.205M60.7 224.736l-21.624-18.699c5.92-6.86 12.385-12.904 19.065-18.258 6.688-5.351 13.606-10.001 20.595-14.098 13.997-8.182 28.24-14.203 42.38-18.999l9.154 27.082c1.13 3.357.493 6.97-1.336 10.067-.908 1.576-2.121 3.02-3.584 4.265-1.446 1.286-3.171 2.304-5.08 3.13-7.081 2.969-14.011 6.299-20.605 10.19-3.324 1.901-6.508 4.02-9.656 6.181-3.095 2.235-6.16 4.517-9.022 7.033-1.594 1.313-3.226 2.424-5.011 3.169-1.735.795-3.55 1.302-5.374 1.504-3.559.471-7.234-.278-9.902-2.567m-22.128 26.735 4.933 2.115c-6.738 11.306-11.778 23.597-15.587 36.144-3.808 12.565-6.409 25.419-8.197 38.31l-12.627-.734c3.029-13.32 6.901-26.547 12.001-39.374 5.1-12.807 11.46-25.247 19.477-36.461M14.243 366.626l-11.305.891C1.261 354.378.2 340.953 0 327.177l19.722.864c-2.556 12.749-4.331 25.657-5.479 38.585" class="C B"/>
        <path d="m213.578 191.189-2.676-29.018a494.2 494.2 0 0 1 20.851-1.48l1.461 29.104a463.51 463.51 0 0 0-19.636 1.394" class="B E"/>
        <path fill="#cc2935" d="m230.475 189.939-1.626-29.095 2.903-.153 1.461 29.104zm-5.64.35-1.97-29.074 2.903-.191 1.802 29.085zm-5.633.414-2.319-29.048 2.901-.222 2.148 29.062zm-5.624.486-2.676-29.018 2.901-.261 2.501 29.033z" class="B"/>
        <path d="m223.85 175.752-.997-14.716 8.931-.526.739 14.731-8.673.511" class="B C"/>
        <path d="m231.389 163.734-.676.37-.072.753-.566-.513-.754.168.322-.689-.397-.648.77.086.512-.569.15.743zm.163 3.161-.672.37-.07.754-.565-.515-.749.169.321-.689-.395-.649.765.087.508-.569.15.743zm.161 3.161-.667.37-.07.753-.561-.514-.744.168.318-.689-.392-.649.76.088.505-.569.149.743zm.153 2.984-.663.369-.069.754-.558-.515-.74.169.315-.69-.389-.648.755.087.502-.568.149.742zm-2.932-9.176-.674.375-.068.754-.57-.509-.752.172.319-.69-.401-.647.771.083.509-.573.154.741zm.178 3.16-.67.375-.067.753-.567-.509-.749.172.318-.689-.398-.648.766.083.506-.573.153.742zm.177 3.161-.665.374-.066.754-.564-.509-.743.171.314-.689-.395-.648.761.084.502-.573.152.742zm.167 2.983-.661.374-.066.754-.56-.51-.738.172.312-.689-.393-.649.755.084.499-.572.153.742zm-2.976-9.16-.672.375-.064.754-.573-.505-.753.178.317-.692-.403-.645.77.077.506-.576.158.741zm.193 3.159-.668.375-.063.754-.57-.505-.747.178.314-.693-.401-.645.766.078.503-.577.157.741zm.192 3.159-.663.375-.063.754-.566-.506-.742.178.31-.692-.398-.645.762.078.499-.577.156.741zm.182 2.983-.659.374-.063.754-.562-.505-.738.177.309-.692-.396-.645.756.078.497-.576.156.741z" class="E B"/>
        <path d="M330.306 192.596a1 1 0 0 1-.974-.777c-5.366-23.477-16.994-37.649-25.803-45.405-9.555-8.41-17.954-11.307-18.038-11.336a1 1 0 0 1-.628-1.266 1 1 0 0 1 1.265-.629c.346.116 34.626 12.13 45.154 58.19a1 1 0 0 1-.752 1.198 1.02 1.02 0 0 1-.224.025m17.503 0a1 1 0 0 1-.974-.777c-10.486-45.881-4.66-57.675-4.407-58.155a1 1 0 1 1 1.773.927c-.082.167-5.638 12.06 4.584 56.782a1 1 0 0 1-.752 1.198 1.02 1.02 0 0 1-.224.025" class="I B"/>
      </g>
    </g>
    <g class="M">
      <path d="m406.63551646 227.725575-4.97485167.34787318c-23.17640441 1.62064114-43.27724197-15.85276692-44.89781336-39.02817377l-1.3764254-19.68393285c-1.24061045-17.74167574 12.13652529-33.1302955 29.87820103-34.37090596l5.58037302-.39021506c17.74167574-1.24061046 33.1302955 12.13652528 34.37090596 29.87820102l2.70995084 38.75436384c.88408754 12.64312614-8.64821185 23.60877182-21.29034042 24.4927896"/>
      <path d="M369.19156757 194.75721007c.48159542 6.88718186-4.71141571 12.85997433-11.5976 13.3415s-12.85990458-4.71041814-13.3415-11.5976 4.7114157-12.85997433 11.5976-13.3415 12.85990457 4.71041815 13.3415 11.5976"/>
    </g>
    <path stroke="#000" stroke-width="3" d="M354.02870668 191.97713898s5.5284997-.38658775 5.91508744 5.14191194"/>
    <g fill="#000">
      <path d="m355.35128557 183.19448807-1.5322583.10714522c-6.23679081-5.26978267-9.29047941-16.68457407-10.75121305-27.86892233-2.00200471-15.32668139 23.81151904-30.18351864 39.23086578-31.26173713l17.94118854-1.25456166 18.78820503 24.7496959-39.20825546 2.74168983c1.185852 16.958588-12.49776454 31.94961817-24.46853254 32.78669017"/>
      <path d="m374.25072778 150.1135587 24.67998525 5.58903664c9.92799017 2.2479386 19.79875302-3.97777124 22.04569407-13.90569165l1.75235058-7.74009057c.8757009-3.8624938-1.54715789-7.70384171-5.40958193-8.57854505l-21.02225693-4.76016617c-13.07533601-2.9601271-26.07508694 5.23865456-29.03521403 18.31399056-1.13066982 4.9900259 1.99906685 9.951794 6.98902299 11.08146625m36.5862455 108.39391903-16.82690956 1.1766442c-13.18779608.92217433-27.52277097-5.28599707-33.23593324-15.72589953l-1.04909051-12.55139274-.48975688-7.00389684c-.14083736-2.01408172 1.46576997-3.76742309 3.5875886-3.9157941l57.62528202-4.0295251c2.12181863-.148371 3.9568071 1.36431216 4.09764446 3.37839388l1.5398637 22.0212253c.59892502 8.5650845-6.22771734 16.01944142-15.2486886 16.65024493"/>
    </g>
    <path d="M434.8868329 230.31317882c-2.9180949 8.78796068-11.32553627 14.98151673-21.05577553 15.66191675l-7.60044011.53147097c-22.7085469 1.58792558-36.71998891-6.86027051-51.16584689-16.8188425 0 0-9.13159343-7.6316058-16.25805555-22.85758016-8.91915366-19.05825817-15.7950246-47.54501385-10.26270764-59.589264 5.61937776-12.23278242 21.10299781-36.86285276 45.9593-38.60096301 35.8983381-2.51023942 63.74451848 15.01300582 66.10966541 48.8364108l-2.17061658 43.66176637c.49429102 7.0687385-1.16804737 21.98803754-3.55552311 29.17508478" class="H"/>
    <path d="M345.51266973 170.15402627s8.1123395-42.61167943 52.76928953-45.73437652c23.85175524-1.66786596 38.37688715 16.07614022 42.04425167 38.81871664l-1.88392467 37.89873009s-8.6808563 47.2115414-70.844326 11.27127258c-1.89709708-1.09633657-3.1555203-2.965106-3.93266398-4.93268826l-18.15262655-37.32165453z" class="C"/>
    <path stroke="#fff" stroke-dasharray="12" stroke-linecap="round" stroke-linejoin="round" stroke-width="7" d="m370.44577663 155.450978 11.4865258 26.88723862"/>
    <g transform="matrix(1.43245 .25191 -.25258 1.42866 560.93292124 676.2272013)">
      <use xlinkHref="#G" fill="#613cab"/>
      <use xlinkHref="#reuse-0" class="D"/>
      <use xlinkHref="#reuse-1" class="D K"/>
      <use xlinkHref="#reuse-2" class="D"/>
      <use xlinkHref="#reuse-3" class="D"/>
    </g>
  </g>
</svg>
