<svg viewBox="-2.7162162162161962 54.50000000000006 421.01351351351343 456.43749999999994" fill="none" xmlns="http://www.w3.org/2000/svg" xmlns:xlink="http://www.w3.org/1999/xlink" overflow="visible" width="421.01351351351343px" height="456.43749999999994px"><g id="Master/Composition/Space"><circle id="Oval" cx="42" cy="371" r="42" fill="#FFA9C4"/><ellipse id="Oval_2" cx="201" cy="275.5" rx="170" ry="169.5" fill="#AED5F8"/><path id="Polygon" fill-rule="evenodd" clip-rule="evenodd" d="M71 124L104 157L71 190L38 157L71 124Z" fill="#7A8DFF"/><g id="Character And Mask"><ellipse id="Mask" opacity="0.278134" cx="201" cy="251.5" rx="170" ry="193.5" fill="#0007E9"/><mask id="mask0_215_559476b09e3a-fedc-4059-96b2-fc069392e181" style="mask-type:alpha" maskUnits="userSpaceOnUse" x="-88" y="44" width="515" height="462" fill="#ffffff"><ellipse id="Mask_2" cx="169.405" cy="275.075" rx="256.983" ry="230.696" fill="#ffffff"/></mask><g mask="url(#mask0_215_559476b09e3a-fedc-4059-96b2-fc069392e181)"><g id="Head/Front" transform="rotate(-27 34.6362 124.278) translate(34.6362 124.278) scale(1.5147058823529411 1.4423076923076923)"><g id="Head/Front/Top"><g id="Head"><path id="SKIN" fill-rule="evenodd" clip-rule="evenodd" d="M73.9354 75.2443C80.411 79.1475 86.7736 81.0333 89.7603 80.2635C97.2496 78.333 97.9382 50.9351 92.1433 40.1339C86.3485 29.3328 56.5583 24.625 55.0568 46.0255C54.5356 53.4529 57.6544 60.0814 62.2623 65.4901L54 104H78L73.9354 75.2443Z" fill="#d4a181"/></g><path id="Hair" fill-rule="evenodd" clip-rule="evenodd" d="M53.6546 45.9098C53.1113 45.9694 52.5592 46 52 46C43.7157 46 37 39.2843 37 31C37 22.7157 43.7157 16 52 16C60.213 16 66.8843 22.6007 66.9985 30.7866C79.0551 26.6097 94.7009 31.4907 92.6071 41.2807C91.3224 47.2878 84.6174 50.4218 77.7742 53.6204C77.456 53.7692 77.1374 53.9181 76.8191 54.0674C75.7648 52.2369 73.7539 51 71.4467 51C68.0465 51 65.29 53.6863 65.29 57C65.29 58.1936 65.6477 59.3058 66.2642 60.2404C63.8546 62.3365 62.1544 64.8595 61.7432 68.1318C57.8595 68.1318 51.5822 56.7286 53.6546 45.9098Z" fill="#e8e1e1"/></g></g><g id="Character Lower Body"><path id="SKIN" fill-rule="evenodd" clip-rule="evenodd" d="M206.353 326.343L280.302 506.186L329.901 658.228H349.486L270.648 326.343L206.353 326.343Z" fill="#d4a181"/><path id="SKIN" fill-rule="evenodd" clip-rule="evenodd" d="M191.462 326.343C190.674 389.541 179.19 474.627 177.355 478.566C175.521 482.506 50.6775 578.76 50.6775 578.76L64.167 592.631C64.167 592.631 211.47 510.105 218.287 499.098C225.103 488.091 247.295 386.803 265.113 326.343H191.462Z" fill="#d4a181"/><path id="Pant" fill-rule="evenodd" clip-rule="evenodd" d="M256.073 642.568L349.191 632.857L274.153 326.343H196.776L256.073 642.568Z" fill="#191847"/><path id="Pant" fill-rule="evenodd" clip-rule="evenodd" d="M69.939 556.383L131.019 625.851C131.019 625.851 227.521 524.579 243.541 493.691C259.561 462.803 272.343 326.343 272.343 326.343H178.446C178.446 326.343 171.464 446.394 169.033 451.981C166.602 457.568 69.939 556.383 69.939 556.383Z" fill="#393f82"/></g><g id="Upper Body" transform="rotate(-14 -3.60303 230.938) translate(-3.60303 230.938) scale(1.50390625 1.4491978609625669)"><g id="Upper Body/Pointing Forward"><path id="SKIN" fill-rule="evenodd" clip-rule="evenodd" d="M193.348 23.6899L158.638 42.7003L171.456 56.4577L196.677 33.3653C209.963 29.7037 216.039 27.0251 214.904 25.3294C213.948 23.8997 212.405 23.9494 210.985 23.9951C209.878 24.0307 208.845 24.064 208.22 23.3937C206.794 21.8628 209.515 16.5104 212.315 11.5416C215.114 6.57269 212.121 7.00525 210.409 7.7199C204.807 11.5123 199.12 16.8356 193.348 23.6899ZM228.246 50.3643L213 58.7399L213.868 74.0403C213.868 74.0403 223.743 66.9131 232.238 64.5444C243.07 61.5241 247.453 59.2177 252.746 52.4731C255.578 48.8645 257.982 41.6102 255.286 39.2477C254.252 38.3414 250.399 40.4824 246.468 42.667C243.472 44.3319 240.43 46.022 238.556 46.4078C236.034 46.9272 236.329 43.6574 236.565 41.0446C236.734 39.1697 236.873 37.633 235.918 38.0773C231.455 38.1538 228.246 50.3643 228.246 50.3643Z" fill="#ba8b72"/><g id="Group 3"><path id="Mask" fill-rule="evenodd" clip-rule="evenodd" d="M141.734 38.4654C153.892 38.337 170.104 35.7692 187.403 24.7888L194.196 39.9387C182.264 51.7804 165.486 61.5097 150.816 61.0977C139.255 60.7731 133.347 46.7892 141.734 38.4654Z" fill="#e87613"/><mask id="mask0_215_4854178b7830-e850-4c50-90e5-3467f79750f2" style="mask-type:alpha" maskUnits="userSpaceOnUse" x="137" y="24" width="58" height="38" fill="#ffffff"><path id="Mask" fill-rule="evenodd" clip-rule="evenodd" d="M141.734 38.4654C153.892 38.337 170.104 35.7692 187.403 24.7888L194.196 39.9387C182.264 51.7804 165.486 61.5097 150.816 61.0977C139.255 60.7731 133.347 46.7892 141.734 38.4654Z" fill="#ffffff"/></mask><g mask="url(#mask0_215_4854178b7830-e850-4c50-90e5-3467f79750f2)"/></g><g id="Group 27"><path id="Mask" fill-rule="evenodd" clip-rule="evenodd" d="M108.945 142.259C97.3866 140.752 86.7664 139.367 80.4728 140.606C73.4113 117.673 79.2749 103.234 84.6879 89.9046C87.9502 81.871 91.0489 74.2405 91.0555 65.3966C91.0748 39.6422 111.754 0 114.797 0H115.67H139.783H142.544C143.784 15.9374 149.079 33.193 154.407 50.5596C155.652 54.6153 156.898 58.6769 158.095 62.7293C178.26 67.3065 223.036 51.3734 223.036 51.3734C223.036 51.3734 234.34 74.7586 233.487 84.7171C207.424 98.331 185.087 104.401 166.683 104.802C167.268 115.721 165.939 126.112 161.474 135.606C155.491 148.327 130.576 145.079 108.945 142.259Z" fill="#ffa434"/><mask id="mask1_215_4854178b7830-e850-4c50-90e5-3467f79750f2" style="mask-type:alpha" maskUnits="userSpaceOnUse" x="77" y="0" width="157" height="145" fill="#ffffff"><path id="Mask_2" fill-rule="evenodd" clip-rule="evenodd" d="M108.945 142.259C97.3866 140.752 86.7664 139.367 80.4728 140.606C73.4113 117.673 79.2749 103.234 84.6879 89.9046C87.9502 81.871 91.0489 74.2405 91.0555 65.3966C91.0748 39.6422 111.754 0 114.797 0H115.67H139.783H142.544C143.784 15.9374 149.079 33.193 154.407 50.5596C155.652 54.6153 156.898 58.6769 158.095 62.7293C178.26 67.3065 223.036 51.3734 223.036 51.3734C223.036 51.3734 234.34 74.7586 233.487 84.7171C207.424 98.331 185.087 104.401 166.683 104.802C167.268 115.721 165.939 126.112 161.474 135.606C155.491 148.327 130.576 145.079 108.945 142.259Z" fill="#ffffff"/></mask><g mask="url(#mask1_215_4854178b7830-e850-4c50-90e5-3467f79750f2)"/></g></g></g></g></g><circle id="Oval_3" cx="291" cy="442" r="42" fill="#FFEBA9"/><path id="Polygon_2" opacity="0.399135" fill-rule="evenodd" clip-rule="evenodd" d="M294 82L302 90L294 98L286 90L294 82Z" fill="#2026A2"/></g></svg>