<svg xmlnsXlink="http://www.w3.org/2000/svg" width="90" height="90">
  <svg xmlnsXlink="http://www.w3.org/2000/svg" viewBox="0 0 90 90">
    <defs>
      <style>
        .cls-4{fill:#1b5a89}@media (prefers-color-scheme:light){:root{filter:none}}@media (prefers-color-scheme:dark){:root{filter:invert(100%)}}
      </style>
    </defs>
    <g id="SvgjsG1003">
      <g id="SvgjsG1002" data-name="solar-system">
        <circle id="SvgjsCircle1001" cx="45" cy="45" r="42.5" fill="#073349"/>
        <g id="SvgjsG1000" data-name="solar-system">
          <circle cx="36.18" cy="40.02" r="3.46" fill="#09b2a5"/>
          <circle cx="45" cy="45" r="4.33" fill="#ffd400"/>
          <path d="M67.16 34.05a.87.87 0 0 1-.77-.46c-.13-.25-.26-.49-.4-.73a.87.87 0 1 1 1.5-.87q.23.39.44.79a.87.87 0 0 1-.37 1.22.86.86 0 0 1-.4.05Z" class="cls-4"/>
          <path d="M45 71a26 26 0 1 1 12.21-48.9.87.87 0 0 1-.82 1.53 24.22 24.22 0 1 0 11.06 12.21.87.87 0 0 1 1.6-.66A26 26 0 0 1 45 71Z" class="cls-4"/>
          <path d="M45.07 64a.87.87 0 0 1 0-1.73h.83a.88.88 0 0 1 .91.82.87.87 0 0 1-.81.91h-.9Z" class="cls-4"/>
          <path d="M42.52 63.88h-.12A19.05 19.05 0 1 1 59 57.93a.87.87 0 1 1-1.27-1.18 17.31 17.31 0 1 0-15.08 5.4.87.87 0 0 1-.12 1.72Z" class="cls-4"/>
          <path d="M45 57.12a12.14 12.14 0 0 1-11.7-8.94.87.87 0 1 1 1.7-.45A10.38 10.38 0 1 0 42.25 35a.87.87 0 1 1-.45-1.67A12.12 12.12 0 1 1 45 57.12Z" class="cls-4"/>
          <circle cx="62.64" cy="26.82" r="3.46" fill="#2cb4ff"/>
          <circle cx="52.79" cy="61.23" r="3.46" fill="#f94bc3"/>
        </g>
      </g>
    </g>
  </svg>
</svg>
